<?xml version="1.0" encoding="utf-8"?>
<!-- Generator: Adobe Illustrator 21.1.0, SVG Export Plug-In . SVG Version: 6.00 Build 0)  -->
<svg version="1.1" id="Layer_1" xmlns="http://www.w3.org/2000/svg" xmlns:xlink="http://www.w3.org/1999/xlink" x="0px" y="0px"
	 viewBox="0 0 459.5 343" style="enable-background:new 0 0 459.5 343;" xml:space="preserve">
<style type="text/css">
	.st0{fill:#FFFFFF;}
	.st1{fill:#006B35;}
	.st2{fill:#E6B00F;}
	.st3{fill:#FFF200;stroke:#FFF200;stroke-width:2.32;}
	.st4{fill:#FFF200;stroke:#FFF200;stroke-width:1.17;}
	.st5{fill:#D9272D;}
	.st6{fill:#FFFDE9;}
	.st7{opacity:0.7;}
</style>
<path id="_Path_" class="st0" d="M175.9,43.2l5.7-2.9c8.2-3.8,16.9-6.5,25.8-8l0.8-0.1l0.2-0.8c0.9-3.4,2-6.7,3.3-9.9
	c3.1-7,7.9-13.2,13.9-18c3.8-3.2,4.1-3.2,8.5,0c6,4.8,10.8,11,13.9,18c1.3,3.2,2.4,6.5,3.2,9.9l0.2,0.8l0.8,0.1
	c8.9,1.5,17.6,4.2,25.8,8l6.1,3l0.4-0.1c27.9-7.2,55.7-7.5,80.3-1c36.6,9.8,65.5,34.6,81.2,70c22.1,49.4,16.5,120.4-31,153.7
	c-24.5,17.2-43.9,22.4-71.4,19.4l-0.9-0.1l-0.3,0.8c-12.4,29.7-41.5,36.2-67.8,39.9l-4.5,0.6c-13.7,1.8-18.6,2.9-24,8.3
	c-4.8,4.8-10.1,7-16.2,7c0,0,0,0.6,0,1.2c0-0.6,0-1.2,0-1.2c-6.1,0-11.4-2.3-16.2-7c-5.4-5.4-10.3-6.5-24-8.3l-4.6-0.6
	c-26.3-3.7-55.4-10.2-67.8-39.9l-0.3-0.8l-0.9,0.1c-27.5,3.1-46.9-2.2-71.5-19.4c-47.5-33.3-53.1-104.3-31-153.7
	c15.8-35.3,44.6-60.2,81.2-70c24.6-6.5,52.3-6.2,80.3,1l0.4,0.1L175.9,43.2z"/>
<path id="_Path_2" class="st1" d="M229.7,343c-6.7,0-12.3-2.6-17-7.4c-5.2-5.1-9.9-6.2-23.3-7.9l-4.6-0.6
	c-27.3-3.9-56.3-10.9-68.7-40.6c-28.2,3.2-48.1-2.6-72.3-19.5c-48-33.6-53.7-105.3-31.4-155.2c15.9-35.7,45-60.8,82-70.6
	c25.2-6.7,53.2-6.2,80.9,1l5.6-2.9c8.3-3.9,17.1-6.6,26.2-8.1c0.9-3.4,2-6.7,3.3-10c3.2-7.3,8.1-13.6,14.3-18.5
	c4.2-3.5,5.1-3.5,9.9,0c1.3,0.9,10,8.1,14.3,18.5c1.3,3.3,2.4,6.6,3.3,10c9,1.5,17.9,4.3,26.2,8.2l5.7,2.9c27.7-7.2,55.7-7.7,80.9-1
	c37,9.9,66.1,35,82,70.6c22.2,49.8,16.6,121.5-31.4,155.2c-24.2,16.9-44.1,22.7-72.3,19.5c-12.4,29.7-41.3,36.7-68.7,40.6l-4.6,0.6
	c-13.4,1.8-18.2,2.8-23.3,7.9C242,340.4,236.5,343,229.7,343"/>
<path id="_Compound_Path_" class="st2" d="M229.8,76.1C187.5,48.8,137.2,39,95.9,50c-34.8,9.3-61.2,32-76.2,65.7
	C-1.1,162.2,3.9,228.9,48.1,259.9c24.3,17,43.2,21.8,73.1,17.1c9.1,30.9,35.3,37.5,64,41.6l4.5,0.6c14,1.9,21,3.1,28.4,10.5
	c6.5,6.4,16.8,6.4,23.3,0c7.3-7.4,14.4-8.6,28.4-10.5l4.5-0.6c28.6-4.1,54.9-10.7,64-41.6c29.9,4.8,48.8,0,73.1-17.1
	c44.2-31,49.2-97.7,28.4-144.3C424.8,82,398.4,59.3,363.6,50C322.3,39,272,48.8,229.8,76.1"/>
<path id="_Path_3" class="st2" d="M192,43.7L192,43.7l-4,2c-0.1,0.3-0.1,0.3,4.3,1.9c10.8,3.7,21.2,8.5,31,14.3l4,2.3
	c0.3-0.1,0.3-0.1-0.9-4.7c-0.1-0.5-3.1-11.3-8.2-15.4c-1.5-1.3-4.3-3.7-10.4-4C202.3,39.9,196.9,41.2,192,43.7z"/>
<path id="_Path_4" class="st2" d="M267.4,43.7L267.4,43.7l4,2c0.1,0.3,0.1,0.3-4.2,1.9c-10.8,3.7-21.2,8.5-31,14.3l-4,2.3
	c-0.4-0.1-0.4-0.1,0.9-4.7c0.1-0.5,3.2-11.3,8.2-15.4c1.5-1.3,4.3-3.7,10.4-4C257.1,39.9,262.6,41.1,267.4,43.7z"/>
<path id="_Path_5" class="st2" d="M229.8,52.1c0-1.6,2.8-6,5.8-10s7.2-11.5,5.4-19.1S229.8,8.9,229.8,8.9l0,0c0,0-9.4,6.5-11.2,14.1
	s2.3,15.2,5.3,19.2S229.8,50.5,229.8,52.1z"/>
<path id="_Compound_Path_2" class="st3" d="M229.8,81.3c-41.9-28-90.8-38.2-132.4-27.1c-33.7,9-59.2,30.8-73.6,63.1
	C3.8,162.2,8.3,226.5,50.7,256.2c24.2,17,42.9,21.2,73.8,15.7c7.3,31.7,32.2,38.1,61.3,42.2l4.5,0.6c12.9,1.7,22.2,3,30.9,11.7
	c2.2,2.2,5.3,3.5,8.5,3.5c3.2,0,6.2-1.2,8.5-3.5c8.7-8.8,18-10,30.9-11.7l4.5-0.6c29.2-4.1,54-10.5,61.4-42.2
	c30.9,5.6,49.6,1.3,73.8-15.7c42.4-29.7,47-93.9,26.9-138.9c-14.4-32.3-39.8-54.1-73.6-63.1C320.6,43.1,271.8,53.3,229.8,81.3"/>
<path id="_Compound_Path_3" class="st2" d="M229.7,93.4C188.9,64.1,140.5,53.1,100,63.9C69.2,72.1,46,92,32.8,121.6
	c-18,40.5-14.2,100.6,23.6,127.1c22.2,15.5,38,20.7,76.2,12.1c3,31.4,19.6,39.1,54.8,44.1l4.3,0.6c13.6,1.8,25.3,3.4,36.4,14.5
	c0.4,0.4,1,0.7,1.6,0.6c0.6,0,1.2-0.2,1.6-0.6c11.1-11.1,22.8-12.6,36.4-14.5l4.4-0.6c35.3-5,51.8-12.7,54.8-44.1
	c38.1,8.6,54,3.4,76.2-12.1c37.8-26.5,41.7-86.6,23.6-127.1c-13.2-29.6-36.4-49.5-67.2-57.8C319,53.1,270.6,64.1,229.7,93.4"/>
<path id="_Path_6" class="st4" d="M194.3,45.5c10.1,3.6,19.9,8.1,29.2,13.5c-0.8-2.7-3.4-10-7-13c-1.4-1.2-3.7-3.1-8.9-3.4
	C203.1,42.5,198.5,43.5,194.3,45.5z"/>
<path id="_Path_7" class="st4" d="M265.1,45.5c-10.1,3.6-19.9,8.1-29.2,13.5c0.9-2.7,3.4-10,7-13c2.4-2.2,5.6-3.4,8.9-3.4
	C256.4,42.5,261,43.5,265.1,45.5z"/>
<path id="_Path_8" class="st4" d="M221,23.6c-0.3,1.1-0.4,2.2-0.4,3.3c0,6.2,3.9,11.9,5.3,13.7c1.7,2.2,2.9,4,3.9,5.5
	c1-1.6,2.2-3.4,3.8-5.5c1.4-1.8,5.3-7.5,5.3-13.7c0-1.1-0.1-2.2-0.4-3.3c-1.2-4.9-6.2-9.4-8.7-11.5C227.2,14.1,222.2,18.7,221,23.6z
	"/>
<path id="_Path_9" class="st0" d="M229.7,313.9c-11.9-10.5-24.7-12.2-37.2-13.9l-4.3-0.6c-33.8-4.8-48.2-11.6-50.3-41.5
	c-0.1-1-0.6-1.9-1.3-2.5c-0.8-0.6-1.9-0.8-2.8-0.6c-13,3.1-23.2,4.5-32,4.5c-17,0-28.4-5.6-42.2-15.2
	c-35.5-24.9-38.9-81.8-21.7-120.2c12.5-28,34.5-46.9,63.5-54.6c10-2.6,20.3-4,30.6-3.9c32.2,0,66.2,11.9,95.7,33.4
	c0.6,0.4,1.3,0.6,2,0.7c0.7,0,1.4-0.2,2-0.7c29.5-21.5,63.5-33.4,95.7-33.4c10.3,0,20.6,1.3,30.6,3.9c29.1,7.8,51.1,26.7,63.5,54.6
	c17.2,38.4,13.7,95.4-21.8,120.2c-13.8,9.6-25.1,15.2-42.1,15.2c-8.8,0-18.9-1.4-32-4.5c-1.8-0.5-3.6,0.6-4.1,2.4
	c-0.1,0.2-0.1,0.4-0.1,0.6c-2,29.9-16.5,36.7-50.3,41.5L267,300C254.5,301.6,241.6,303.4,229.7,313.9z"/>
<path class="st5" d="M229.7,315.5c-11.7-10.8-24.2-12.5-37.4-14.3l-4.3-0.6c-34.4-4.9-49.2-11.9-51.3-42.6c0-0.6-0.4-1.2-0.9-1.6
	c-0.5-0.4-1.2-0.5-1.9-0.4c-38.4,9-53.6,4.1-75.1-10.9c-36-25.2-39.5-82.8-22.1-121.7C49.4,95.1,71.7,76,101.1,68.1
	c39.7-10.6,87.3,0.5,127.3,29.7c0.4,0.3,0.8,0.4,1.3,0.4c0.5,0,0.9-0.1,1.3-0.4c40.1-29.2,87.6-40.3,127.3-29.7
	c29.5,7.9,51.7,27,64.3,55.3c17.4,38.9,13.8,96.5-22.1,121.7C379,260.1,363.8,265,325.4,256c-0.6-0.1-1.3,0-1.8,0.4
	c-0.5,0.4-0.8,1-0.9,1.6c-2.1,30.7-16.8,37.7-51.3,42.6l-4.3,0.6C253.9,302.9,241.4,304.7,229.7,315.5z"/>
<g id="_Group_4">
	<path id="_Path_10" class="st6" d="M215.9,240.3l-3.5,0.9l-0.6,2.7l-1.7,5.9c-1.3,3.5-5.1,7.8-7.8,9.8l-1.8,0.6
		c0,0-0.1-0.2-0.1-0.7l0.3-2.4l2.7-12.7c0.4-1.8,0.3-2.9-0.1-3.5c-0.3-0.3-0.7-0.5-1.1-0.5c-0.7,0-1.8,0.3-6.4,3.6l-1.6,1.1l0.6,1.8
		l2.1-1.4l1.8-0.9c0.4,0,0.4,0.4,0.4,0.5l-0.4,1.9l-2.6,12.7l-0.2,2.5c0,1.1,0.9,2.1,2,2.2c2.7,0,6-3.2,7.8-5.1
		c1.4-1.6,2.6-3.2,3.8-4.9c-0.4,1.6-1.1,3.8-1.1,3.8l-0.1,0.4l-0.5,3.3c0,2.1,1.4,2.3,1.9,2.3l2.6-1l5.4-3.8l-0.2-0.4l-0.7-1.3
		l-1.6,1.1c-0.8,0.6-1.7,1-2.6,1.2c-0.1,0-0.2-0.3-0.2-0.3l0.2-1.6c0-0.2,4-17,4-17l0.1-0.2l-0.1-0.2l-0.5-0.7L215.9,240.3z"/>
	<path id="_Compound_Path_4" class="st6" d="M238,240.4l-1.4,0.8c-1.2-0.5-2.4-0.8-3.7-0.9c-2.5,0-3.8,0.6-7.4,3.1
		c-3,2.1-5.9,12-5.9,16.5c0,0.7,0.1,4.4,2.1,4.4c0.7,0,1.6-0.2,3.9-1.9c2.3-1.9,4.3-4.2,6.1-6.6c-0.4,1.7-0.9,3.9-0.9,3.9l-0.3,2.6
		c0,1.8,1.1,2,1.7,2c1.4,0,4.6-2.5,7.1-4.5l0.2-0.2l-0.6-1.9l-1.1,0.9c-1,0.8-1.9,1.6-2.6,1.6c0,0-0.1,0-0.1,0
		c-0.1-0.3-0.2-0.7-0.1-1l4.4-18l-0.9-0.8L238,240.4z M223.8,258.4c0-2.8,1.3-7.5,2.5-10.7c1.1-2.9,1.9-4.2,4.5-4.2
		c1.2,0.1,2.3,0.3,3.4,0.8c-1.2,6.1-2.7,8.6-4.2,10.6c-2,2.6-4.5,5.3-5.8,5.3C224.1,260.1,223.8,260.1,223.8,258.4L223.8,258.4z"/>
	<path id="_Path_11" class="st6" d="M251.1,228.6l-3.6,1.4l-4.1,0.6l-0.1,0.3l-0.3,1.5h2.8c1,0,1.1,0.2,1.1,0.6l-0.1,0.6l-0.1,0.5
		c-0.3,2.6-2.8,16.2-4,20.5c-1.2,4.5-1.6,6.1-1.6,7.3c0,2.1,1.3,2.3,1.9,2.3l2.6-1l5.2-3.6l0.1-0.5l-0.7-1.3l-1.6,1.1
		c-1.9,1.2-2.5,1.3-2.6,1.3c-0.1-0.1-0.2-0.3-0.2-0.5l0.2-1.2l6.2-29.3l-1-0.9L251.1,228.6z"/>
	<path id="_Compound_Path_5" class="st6" d="M259.6,233c-0.1,1.2,0.7,2.3,1.9,2.5c0.1,0,0.3,0,0.4,0c1.7,0,3-1.6,3-3.7
		c0-1.2-0.9-2.2-2.1-2.2c0,0,0,0,0,0C261,229.7,259.7,231.2,259.6,233z M261.2,240.3c-0.8,0-1.8,0.3-6.5,3.6l-1.6,1.2l0.7,1.8
		l1.8-1.2l0.8-0.5l1.3-0.7c0.4,0,0.4,0.6,0.4,0.6l-0.4,1.9l-3.1,11.2l-0.6,3.7c0,2.1,1.3,2.3,1.9,2.3l2.6-1l5.5-3.8l-0.2-0.4
		l-0.7-1.2l-1.6,1.1c-0.8,0.6-1.7,1.1-2.6,1.3c-0.1-0.1-0.2-0.3-0.2-0.5l0.3-1.7l3.6-14.3c0.4-1.6,0.4-2.4-0.1-3
		C262.2,240.4,261.7,240.2,261.2,240.3L261.2,240.3z"/>
	<path id="_Path_12" class="st6" d="M275.8,232.7l-3.8,1.8l-0.1,0.3c0,0-1.2,7.9-1.2,8c0-0.2-3.8,1.4-3.8,1.4l-0.2,0.1l-0.1,0.3
		l-0.2,1.1h4c-0.2,1-2.5,12.7-2.5,12.7l-0.2,1l-0.4,2.7c0,2.1,1.3,2.3,1.9,2.3l2.6-0.7l4.5-3.2l1.8-1.5l-0.9-1.6l-2.5,1.8
		c-1.7,1.1-2.3,1.3-2.6,1.3s-0.2-0.3-0.2-0.5l0.2-1.7c0-0.1,2-10.8,2.4-12.6h5l0.7-3.3l-5.1,0.3c0.4-2.9,1.1-5.8,2-8.6l0.1-0.2
		l-0.9-1.2L275.8,232.7z"/>
	<path id="_Path_13" class="st6" d="M303,240.3l-3.6,0.9l-0.1,0.3l-0.8,3.1l-0.8,3.1c-0.9,2.8-2.1,5.4-3.7,7.8
		c-1.9,2.8-4,4.3-4.5,4.3h-0.1c-0.4-0.7-0.5-1.5-0.4-2.3l0.7-9.1c0.4-5.5,0.2-7-0.5-7.6l-1-0.4c-0.8,0-1.3,0.3-3.8,2l-4.2,2.9l1,1.6
		l2.6-1.6c0.3-0.2,1-0.5,1-0.5l0.2,0.1c0.1,0.1,0.4,0.7,0.4,2.6l-0.8,11.4v2.4c0,1.6,0.9,3.3,2.6,3.3s4-2.5,5.2-4l2.7-3.5l-1.6,5.7
		c-0.7,2.4-1.5,4.7-2.6,7c-1.5,3-3.1,4.4-5,4.4c-0.7,0-1.4-0.3-1.9-0.9c-0.5-0.7-0.7-1.7-0.5-2.6l0.1-0.4l-1-0.4l-2.5,1.7
		c-0.4,1.3-0.1,2.8,0.8,3.9c0.8,1,2.1,1.5,3.3,1.5c2.9,0,5.7-1.7,8.5-5.3c2.2-2.9,3.8-6.1,4.8-9.5l6.7-20.9l-1-0.8L303,240.3z"/>
	<g id="_Group_5">
		<g id="_Group_6">
			<g id="_Group_7">
				<path id="_Compound_Path_6" class="st6" d="M158.2,236.6c-1.4,2.9-2.4,6.1-2.8,9.4h-0.1l-0.1,0.9l0,0c0,0.6-0.1,1.3-0.1,2.1
					c0,4.8,1.5,11.3,8.9,14c8.6,3.2,21.3-0.2,26.4-10.4c3.6-7.2,4.4-14,2.4-19.2c-1.5-3.6-4.5-6.5-8.2-7.7
					C174.4,222,162.9,226.7,158.2,236.6z M161.9,241.2c1.8-7.2,6.4-15.3,17.8-13.1c2.6,0.4,4.9,1.9,6.4,4.1c2.2,3.4,2.6,8.8,1,15.6
					c-2.6,11.1-10.7,14.7-17.6,13.2s-8.7-6.9-8.7-12c0-0.8,0-1.6,0.1-2.4l0,0L161.9,241.2z"/>
				<path id="_Path_14" class="st6" d="M165.4,268.3l-0.3,0.5l0,0c-0.2,0.4-0.2,0.9,0,1.3c0.2,0.4,0.6,0.6,1,0.6h0.3l0.3-0.4
					c1.8-3.8,4.6-5,8.7-3.9l12.9,4.5l2.8,1c3,1,12.9,4.1,15.6-0.8l1.7-3.5c0.7-0.8,0.2-2.7,0.1-2.9c-0.2-0.4-0.6-0.6-1-0.6
					c-0.4,0.1-0.8,0.4-0.9,0.8c0.1,1.6-0.2,2.5-0.8,3.2c-1,1-3,1.5-6.3,1.4c-3.3-0.2-6.5-1-9.5-2.3l-4.7-1.5l-0.7-0.2
					c-3.4-1.1-6.9-2-10.4-2.6C168.7,262.3,166.5,266.3,165.4,268.3z"/>
			</g>
		</g>
	</g>
</g>
<g id="_Group_8">
	<g id="_Group_9" class="st7">
		<path id="_Compound_Path_7" d="M134.1,137.5v16.2c-1.1-1.9-3.1-5.1-3.1-5.1l-0.5-0.7c-2.3-3.4-7.6-8.4-16.6-4.3
			c-5.2,2.4-10.8,5.4-12.8,6.5c-4.9,2.8-6.6,5.3-7.3,8.4v-2c0-8.4-2.6-15.4-7.5-20.2S74.4,128.9,66,129c-9.1,0.2-17.8,1.3-21.3,2.4
			l-1.9,0.6l-8.1,24.6l7.7-2.4c5.1-1.7,10.2-3.2,15.5-4.3l-11.6,5.6v38.1c0,3.5-2.8,7.7-5.4,10.4l-6,6.3h32.4
			c11.1,0,24.1-3.9,26.3-21.5c0,0.9,0.1,1.6,0.1,2c0.6,6.3,3.2,10.6,8,13.4l0.9,0.6c2.7,1.6,5.8,3.5,18.2,7.2l2.7,0.8l11.4-17.3
			c0.9,4,3.3,7.5,6.6,9.9c3.1,2.2,6.5,4.1,9.9,5.7l2.9,1.4l12-18.1l-4.7-2.5c-3.4-1.8-4.7-2.5-4.7-6.2v-58.3L134.1,137.5z
			 M130.8,192.4c-6.8-1.6-7.7-2-10.9-3.2l-0.5-0.2c-1.9-0.7-2.9-1.3-3.4-2.2c5.7-4.3,11.1-9,16-14.1c0.8-0.8,1.5-1.7,2.1-2.7v18.2
			c0,1.6,0.1,3.3,0.4,4.9L130.8,192.4z"/>
		<path id="_Compound_Path_8" d="M345.4,142.3h-2.6v1.8h-8.1v4.6c-1.6-1.6-3.3-3.1-5.1-4.4c-3-2.2-5.9-3.8-12.4-0.6l-5.6,2.9
			c-1.8-1.6-3.7-2.9-5.9-3.9l-2.1-0.9l-1.7,1.4l-10.9,8.9c-0.7-1.3-1.7-2.5-2.9-3.4c-2.2-1.8-4.5-3.5-6.9-5c-4.7-3-8.6-3-15.1-0.1
			l-10.2,4.9c-4.4,2.3-8.6,5.4-8.6,12V177l0,0v14.8c-1.2-0.9-1.8-2-1.8-4.4v-41.8c0-4.6-0.3-5.8-3.4-9.3c-2-2-4.2-3.8-6.7-5.1
			c-5.7-3.5-10.7-1.9-14.7,0.1l-4.9,2.5c-1.4-1-2.7-1.8-4.1-2.7c-4.4-2.6-9-2.4-14.2,0.5c0,0-4.5,2.6-5.2,3
			c-2.6-1.8-5.4-3.3-8.4-4.4l-2-0.8l-18.5,15.2l10.9,5.5l1,0.6c0,0.5,0.1,1.4,0.1,2.4v57.9h46.9v-18.8c0,7.7,3.3,10.8,5.4,12.8
			l3.5,3l1,0.7c1.6,1.3,3.4,2.4,5.2,3.3l2.6,1.2l10.5-12.1c1,1.2,2.2,2.3,3.5,3.3l0.5,0.4c2.4,1.8,5.1,3.4,7.8,4.7
			c6.4,3.4,10.9,1,15.1-1.2c3.2-1.8,6.3-3.8,9.2-6c2.4-1.9,6-4.7,6-12v-28.7c0-0.3,0-0.5,0-0.8l0.8,0.6l0.8,0.7
			c0.2,0.9,0.2,1.7,0.2,2.6v46.1h22.5v-10.2c0.5,1.8,1.5,3.4,2.9,4.6l3.5,3l1.2,0.9l7.3,5.1l2-2.7l10.7-12.3
			c1.9,3.9,5.3,6.5,8.9,8.7c0.2,0.1,8.1,4.3,8.1,4.3l3,1.6l10-15c1.3,2.1,3.2,3.9,5.4,5.1l0.9,0.5c2.7,1.7,5.8,3.5,18.3,7.3l2.6,0.8
			l12.5-19l-5.2-1.2c-6.8-1.6-7.7-1.9-10.9-3.2l-0.5-0.2c-1.9-0.7-2.9-1.3-3.4-2.2c5.7-4.3,11-9,15.9-14.1c3.6-3.9,4.9-7.6,4.9-10.9
			c0-2.5-0.7-4.9-1.9-7c-1.2-2.4-2.7-4.7-4.3-6.9l-0.2-0.2c-2.3-3.3-7.6-8.4-16.6-4.3c-5.2,2.3-10.8,5.3-12.7,6.5
			c-1.8,1-3.4,2.2-4.9,3.6v-9h-9v-15L345.4,142.3z M341.6,193.5c-3.1-1.8-3.1-1.8-3.1-5.1v-25.5h4.2v28.9c0,0.8,0.1,1.7,0.2,2.5
			L341.6,193.5z M365.5,186.8v-24h6.2l0.1,27.2v0.2c0.1,0.9,0.2,1.8,0.4,2.7C366,190.1,365.5,189.6,365.5,186.8L365.5,186.8z"/>
	</g>
	<path class="st0" d="M43.1,202.8l4.1-4.3c2-2.1,5.7-6.1,5.7-10.4v-37.4l8.7-4l-0.7-2.2c-5.2,1.1-11.2,2.7-13.2,3.3l-4.7,1.4
		l7.2-21.7l1.3-0.4c3.5-1,12-2.2,21-2.3h0.6c7.8,0,14.4,2.4,19,6.9c4.6,4.5,7.1,11.3,7.1,19.4v27c0,24.6-18.5,24.6-25.4,24.6
		L43.1,202.8z M73.1,184.3l1.3-0.1c1.1,0,2.2-0.4,3-1.1c0.9-0.9,1.4-2.5,1.4-4.9v-26.4c0-3.1-0.8-5.3-2.2-6.6
		c-0.4-0.3-0.9-0.6-1.4-0.8l-2-0.9L73.1,184.3z"/>
	<path id="_Path_15" class="st0" d="M127.6,205.3c-12.3-3.7-15.3-5.5-18-7.1c-0.5-0.3-0.8-0.5-1-0.6l0,0c-4.5-2.6-6.8-6.6-7.4-12.4
		c-0.2-2.2-0.6-11.1-0.6-18.8v-1.2h-0.1l0.2-2.8v-2.7l0.2-0.9c0.1-1.6,0.2-3.2,0.2-3.8c0.5-3.7,1.7-6.2,7.1-9.3
		c1.7-1,7.3-4,12.7-6.4c1.9-0.9,3.9-1.4,6-1.4c4.6,0,7.5,2.9,9.2,5.3l0.5,0.7l3.9,6.4c1.1,1.9,1.7,4.1,1.7,6.4c0,3.4-1.5,6.8-4.5,10
		c-4.9,5.1-10.2,9.8-15.8,14l-0.8,0.6l0.5,0.9c0.7,1.3,2,2,4,2.7l0.4,0.2c3.2,1.2,4.1,1.6,11.1,3.2l3.6,0.9l-11.2,16.8L127.6,205.3z
		"/>
	<path id="_Path_16" class="st0" d="M158.4,205.3c-3.4-1.6-6.6-3.4-9.7-5.6c-4.9-3.6-6.9-8.2-6.9-15.9V132l20.4-9.3v58.2
		c0,4.4,1.9,5.4,5.4,7.3l3.6,1.9l-10.8,16.2L158.4,205.3z"/>
	<path id="_Path_17" class="st0" d="M244.2,205.2c-1.8-0.9-3.5-2-5.1-3.3l-1.1-0.8c0,0-2.9-2.5-3.2-2.8c-2.9-2.6-4.7-6.3-4.9-10.3
		l-2.4,0.1v14.5h-44.6v-55.3c0-1,0-1.9-0.1-2.5l-0.1-0.6l-1.6-0.9l-1-0.5l-8.2-4.1l16.6-13.6l1.4,0.5c2.9,1.1,5.6,2.5,8.2,4.3
		l0.6,0.4l0.6-0.4c0.7-0.4,5.2-3,5.2-3c2.2-1.4,4.7-2.1,7.2-2.2c2,0,4,0.6,5.8,1.7c1.4,0.8,2.7,1.7,4.1,2.6l0.6,0.4l5.6-2.8
		c2.2-1.2,4.7-1.9,7.2-2c2.3,0,4.5,0.7,6.4,1.9c2.4,1.3,4.5,3,6.4,4.9c2.9,3.2,3.1,4.1,3.1,8.5v41.8c0,4.3,1.9,5.3,4.4,6.6l4,2.2
		L246,206.1L244.2,205.2z"/>
	<path id="_Path_18" class="st0" d="M278.4,188.1c-0.3-0.1-0.6-0.2-0.9-0.4l-0.8-0.6c-0.6-0.4-1.1-0.8-1.6-1.3l-0.4-0.4
		c-0.6-0.4-0.8-1-0.7-1.7v-28.5c0-0.6,0.3-1.1,0.9-1.4c0.3-0.2,0.6-0.3,0.9-0.4c0.2,0,0.6,0.4,1.2,0.9l0.5,0.4
		c0.9,0.5,1.4,1.5,1.4,2.6v29.5C278.8,187.2,278.7,187.7,278.4,188.1L278.4,188.1z"/>
	<path id="_Path_19" class="st0" d="M274.9,204.4c-2,0-3.9-0.6-5.7-1.6c-2.6-1.3-5.1-2.8-7.5-4.6l-0.7-0.5
		c-5.4-3.9-6.1-7.9-6.1-11.2v-31.2c0-5.6,3.2-8.4,8-10.9l9.5-4.6l0.7-0.3c2.4-1.2,5-1.9,7.6-2.1c2.3,0.1,4.5,0.8,6.3,2.1
		c2.4,1.5,4.7,3.1,6.8,4.9c4,3.3,4,6.4,4,11.5v28.7c0,6.7-3.2,9.2-5.5,11c-2.9,2.2-5.9,4.2-9.1,5.9C280.5,203,278,204.4,274.9,204.4
		z"/>
	<path id="_Path_20" class="st0" d="M405.8,204.8c-12.4-3.7-15.4-5.5-18-7.1l-0.1-0.1l0,0l-0.8-0.5c-4.5-2.6-6.9-6.6-7.4-12.4
		c-0.2-2.1-0.5-10.8-0.5-18.6v-1.6h-0.1l0.1-2.7V159l0.1-0.8c0.1-2,0.2-4,0.2-4c0.5-3.4,1.7-6,7.1-9c1.8-1.1,7.4-4.1,12.6-6.4
		c1.9-0.9,3.9-1.4,5.9-1.4c3.8,0.1,7.2,2.1,9.2,5.3l0.3,0.5l4,6.6c1.1,2,1.7,4.2,1.8,6.4c0,3.4-1.5,6.8-4.5,10
		c-4.8,5.1-10.1,9.7-15.7,13.9l-0.8,0.6l0.5,0.9c0.6,1.1,1.8,1.8,3.5,2.5l0.9,0.4c3.3,1.2,4.2,1.6,11.1,3.2l3.5,0.9l-11.1,16.9
		L405.8,204.8z"/>
	<path id="_Path_21" class="st0" d="M331.7,202.5l-1.1-0.9l-3.6-3.1c-1.2-1.2-2-2.6-2.5-4.1l-2.3,0.4v8H302v-43.9c0-1,0-2-0.2-2.9
		l-0.1-0.3l-0.2-0.2c-0.1-0.1-0.9-0.8-0.9-0.8l-0.5-0.4l0,0l-5.4-3.6l15.6-12.8l1.4,0.6c2,0.9,3.9,2.2,5.5,3.7l0.6,0.5l6.3-3.3
		c1.8-1,3.8-1.5,5.8-1.6c2,0,3.5,0.8,5.3,2.2c2,1.4,3.9,3,5.5,4.8c2.8,3.1,3,5.4,3,8.8V183c0,3.7,0.2,4.1,3.7,6.2l3.6,2.1l-12,13.7
		l-1.4,1.9L331.7,202.5z"/>
	<path id="_Path_22" class="st0" d="M360.4,201.1c-6-3.6-10-7.4-10-14.8v-30.1h-8.1v-16.3h8.1v-6.3l20.4-9.7v16h9v16.3h-9v25.2
		c0,3.6,1.3,4.4,7.6,7.2l3,1.4l-10.9,16.5L360.4,201.1z"/>
	<g id="_Group_10">
		<g id="_Group_11">
			<g id="_Group_12">
				<path id="_Compound_Path_9" class="st1" d="M72.4,123.7c-9.1,0.2-17.7,1.3-21.3,2.3l-1.9,0.5L41.2,151l6.9-2.1
					c1.8-0.6,7.8-2.2,13.1-3.3c-3.6,1.6-9.4,4.3-9.4,4.3v38.2c0,3.9-3.5,7.6-5.4,9.6l-5.9,6.4h33.3c6.6,0,26.6,0,26.6-25.8v-27
					c0-8.4-2.6-15.4-7.5-20.3S80.9,123.5,72.4,123.7z M74.4,145.4v-0.1c0.5,0.2,1,0.4,1.4,0.7c1.2,1.1,1.9,3.1,1.9,5.8v26.4
					c0,2-0.4,3.5-1,4.1c-0.6,0.5-1.4,0.8-2.2,0.7C74.3,176.7,74.4,145.5,74.4,145.4L74.4,145.4z"/>
			</g>
			<g id="_Group_13">
				<path id="_Compound_Path_10" class="st1" d="M120.4,138.2c-5.5,2.5-11.2,5.6-12.7,6.5c-5.7,3.3-7.2,6.2-7.7,10c0,0-0.1,2-0.2,4
					h-0.2l-0.1,3.6l-0.2,4h0.2v0.1c0,7.8,0.3,16.6,0.6,18.9c0.6,6.3,3.2,10.6,8,13.4l0.9,0.5c2.7,1.6,5.8,3.5,18.3,7.2l2.7,0.8
					l12.6-19l-5.2-1.3c-6.9-1.6-7.8-2-10.9-3.2l-0.4-0.2c-1.9-0.7-2.9-1.3-3.4-2.2c5.7-4.3,11-9,15.9-14.1c3.6-3.9,4.9-7.6,4.9-10.8
					c0-2.5-0.7-4.9-1.9-7l-4-6.5l-0.5-0.7C134.7,139.1,129.4,134.1,120.4,138.2z"/>
			</g>
			<g id="_Group_14">
				<path id="_Compound_Path_11" class="st1" d="M158.1,123.2l-17.5,8v52.6c0,8.1,2.1,13,7.4,16.8c3.1,2.2,6.5,4.1,9.9,5.7l2.9,1.4
					l12-18.1l-4.7-2.6c-3.4-1.8-4.7-2.5-4.7-6.2v-60L158.1,123.2z"/>
			</g>
		</g>
		<g id="_Group_15">
			<g id="_Group_16">
				<path id="_Compound_Path_12" class="st1" d="M227.1,125.7l-5,2.5c-1.4-1-2.7-1.8-4.1-2.7c-4.4-2.6-9-2.4-14.2,0.5
					c0,0-4.6,2.6-5.2,3c-2.6-1.9-5.4-3.3-8.4-4.4l-2-0.7l-18.4,15.2l9.9,4.9l1,0.5l1,0.6c0,0.6,0.1,1.4,0.1,2.4v56.4h47v-15.7
					c0.2,4.1,2,8,5,10.8l0.2,0.2l3.5,3l0.9,0.7c1.6,1.3,3.4,2.4,5.3,3.4l2.6,1.2l14.8-17.1l-5.3-2.9c-2.5-1.4-3.8-2-3.8-5.6v-41.8
					c0-4.6-0.3-5.9-3.4-9.3c-2-2-4.2-3.8-6.7-5.2C236.1,122.2,231.2,123.7,227.1,125.7z"/>
			</g>
			<g id="_Group_17">
				<path id="_Path_23" class="st1" d="M272.8,155.2c0-1,0.6-2,1.5-2.4c1.9-1.1,2.3-0.4,3.9,1c1.1,0.8,1.8,2.1,1.7,3.4v29.5
					c0,1.8-0.9,3.5-3.1,1.9c-0.9-0.6-1.8-1.2-2.5-2c-0.9-0.9-1.5-1.1-1.5-2.9V155.2z"/>
				<path id="_Compound_Path_13" class="st1" d="M272.6,138.4l-0.7,0.3l-9.5,4.6c-4.5,2.3-8.6,5.4-8.6,12c0,0,0,8.8,0,12.6l0,0v18.6
					c0,3.4,0.7,7.9,6.6,12.2l0.6,0.5c2.4,1.8,5,3.4,7.7,4.7c6.4,3.4,10.8,1,15.1-1.3c3.2-1.7,6.3-3.8,9.3-6c2.4-1.9,5.9-4.7,5.9-12
					v-28.7c0-5.2,0-8.7-4.4-12.4c-2.2-1.8-4.6-3.5-7-5C283,135.5,279.1,135.5,272.6,138.4z"/>
			</g>
			<g id="_Group_18">
				<path id="_Compound_Path_14" class="st1" d="M398.6,137.7c-5.4,2.4-11,5.5-12.8,6.5c-5.7,3.2-7.1,6.1-7.6,10l0,0
					c0,0-0.1,2-0.2,4h-0.1l0,3.7l-0.2,4h0.2v0.4c0,7.9,0.3,16.6,0.5,18.7c0.6,6.3,3.2,10.5,8,13.3l0.9,0.5c2.7,1.7,5.8,3.5,18.3,7.3
					l2.7,0.8l12.5-19l-5.2-1.2c-6.8-1.6-7.7-1.9-11-3.2l-0.5-0.2c-1.9-0.7-2.9-1.3-3.4-2.2c5.7-4.2,11.1-9,16-14.1
					c3.6-3.9,4.9-7.6,4.9-10.8c0-2.5-0.7-4.9-1.9-7l-4.1-6.6l-0.4-0.5C412.9,138.6,407.6,133.6,398.6,137.7z"/>
			</g>
			<g id="_Group_19">
				<path id="_Compound_Path_15" class="st1" d="M308.4,137.9l-15.6,12.9l5.9,4l1.1,0.8c0,0,0.8,0.6,0.8,0.7
					c0.2,0.9,0.2,1.7,0.2,2.6v45h22.5v-9.1c0.5,1.8,1.5,3.4,2.9,4.7l3.6,3.1l1.2,0.9l7.1,5l2-2.7L353,191l-4.9-2.8
					c-3.1-1.9-3.1-1.9-3.1-5.2v-29.5c0-3.7-0.2-6.2-3.3-9.6c-1.7-1.9-3.6-3.5-5.7-5c-3-2.2-5.9-3.7-12.4-0.6l-5.6,2.9
					c-1.8-1.6-3.7-2.9-5.9-3.9l-2.1-0.9L308.4,137.9z"/>
			</g>
			<g id="_Group_20">
				<path id="_Compound_Path_16" class="st1" d="M366.6,124.6l-17.5,8.3v5.9h-8.1v18.7h8.1v28.9c0,8.4,5.1,12.6,10.6,15.8l8.1,4.3
					l3,1.6l12.3-18.5l-4.2-1.9c-6.4-2.9-7-3.4-7-6.2v-24h9v-18.7h-9v-16.7L366.6,124.6z"/>
			</g>
		</g>
	</g>
	<g id="_Group_21">
		<g id="_Group_22">
			<g id="_Group_23">
				<path id="_Path_24" class="st0" d="M70.6,145.4l-15.1,6.9v35.8c0,5.3-4.1,9.7-6.4,12.1h24.6c11.2,0,22.8-2.8,22.8-22v-27
					c0-16.3-10.2-23.9-24.1-23.7c-8.8,0.1-17.1,1.3-20.3,2.2L47,145.3c0.7-0.4,14.8-4.3,20.8-4.4c1.1,0,13.6-2.4,13.6,10.9v26.4
					c0,9.8-7,8.6-10.8,8.6L70.6,145.4L70.6,145.4z"/>
			</g>
			<path id="_Compound_Path_17" class="st0" d="M103.3,162.4c0.1-2.9,0.2-5.5,0.4-7.2c0.3-2.4,0.8-4.4,5.8-7.2
				c1.6-0.9,7.2-3.9,12.3-6.2c1.7-0.8,7.6-3.7,12.2,2.9c1.6,2.2,3,4.4,4.2,6.8c3.6,6.5-0.4,11.3-2.4,13.5
				c-5.3,5.6-11.1,10.6-17.4,15.1c0,5.2,4.4,6.6,6.6,7.4c3.4,1.3,4.6,1.7,11.4,3.3l-8.1,12.2c-13.5-4.1-15.5-5.8-18.4-7.4
				c-3.5-2-5.6-5-6.2-10.5C103.6,182.7,103.2,171.1,103.3,162.4 M117.9,173.1c2.2-1.8,4.2-3.7,6.1-5.8c4.3-4.7-1-12.5-2.7-14.2
				c-1.8-1.9-3.4-1.1-3.4,1.3V173.1z"/>
			<g id="_Group_24">
				<path id="_Path_25" class="st0" d="M159.7,126.6l-15.3,7v50.2c0,7,1.6,10.7,5.8,13.8c3,2,6.1,3.8,9.3,5.3l8-12
					c-4.1-2.2-7.8-3.5-7.8-10.1L159.7,126.6z"/>
			</g>
		</g>
		<g id="_Group_25">
			<g id="_Group_26">
				<path id="_Path_26" class="st0" d="M209,200.2h15.7v-57.3c0,0,1.6-1,2.9-1.7c1.9-1,5-0.3,5,3.3v42c0,6.1,2.3,8.4,4.1,10.2
					c1,0.9,2,1.8,3,2.5c1.8,1.4,3.7,2.7,5.7,3.7l9.9-11.4c-3-1.8-7-2.9-7-9.6c0,0,0-37.4,0-41.8c0-3.9-0.1-4.2-2.5-6.8
					c-1.7-1.8-3.7-3.3-5.8-4.5c-3.7-2.2-6.8-1.9-11.2,0.2c-2.2,1.1-5.1,2.6-7,3.5c-1.8-1.4-3.7-2.7-5.7-3.9
					c-1.9-1.1-5.1-2.5-10.4,0.6c-3.2,1.8-4.8,2.8-7.3,4.2c-2.9-2.3-6.1-4.1-9.5-5.3l-12.4,10.2c0,0,2.3,1.1,4.7,2.3
					c4.1,2.1,4.1,1.6,4.1,7v52.5H201v-57.3c0.4-0.3,2.1-1.3,3-1.8c1.6-0.9,3.7-0.2,4.5,1.4c0.3,0.6,0.4,1.2,0.4,1.9v55.8L209,200.2z
					"/>
			</g>
			<path id="_Compound_Path_18" class="st0" d="M257.5,171.6v-16.4c0-4,1.9-6.2,6.6-8.7c3.9-2,7.2-3.6,10-4.8
				c5.7-2.6,8.1-2.3,11.5-0.2c2.3,1.4,4.5,3,6.6,4.7c3,2.5,3,4.5,3,9.5v28.7c0,5.4-2.2,7.2-4.5,9c-2.7,2.1-5.6,4-8.7,5.7
				c-4.2,2.3-7.1,3.7-11.6,1.3c-2.8-1.4-5.4-3-7.9-4.9c-4.2-3.1-5-6-5-9.1L257.5,171.6L257.5,171.6z M272.8,183.7
				c0,1.8,0.6,2,1.5,2.9c0.8,0.8,1.6,1.4,2.5,2c2.2,1.6,3.1-0.1,3.1-1.8v-29.5c0-1.4-0.6-2.7-1.7-3.4c-1.6-1.4-2-2.1-3.9-1.1
				c-0.9,0.4-1.5,1.4-1.5,2.4L272.8,183.7L272.8,183.7z"/>
			<g id="_Group_27">
				<path id="_Path_27" class="st0" d="M396.1,161.9v0.5"/>
				<path id="_Compound_Path_19" class="st0" d="M381.5,161.9c0-2.4,0.1-4.8,0.4-7.2c0.3-2.4,0.8-4.4,5.8-7.2
					c1.7-0.9,7.1-3.9,12.3-6.2c1.8-0.8,7.5-3.7,12.1,2.9c1.6,2.2,3,4.4,4.2,6.8c3.6,6.5-0.3,11.3-2.4,13.5
					c-5.3,5.5-11.1,10.6-17.4,15c0,5.3,4.4,6.6,6.6,7.4c3.4,1.3,4.5,1.7,11.4,3.3l-8,12.2c-13.5-4.1-15.5-5.8-18.4-7.5
					c-3.5-2-5.6-5-6.2-10.5C381.8,182.2,381.4,170.6,381.5,161.9z M396.1,162.4v10.2c2.2-1.8,4.2-3.7,6.1-5.7
					c4.2-4.7-1-12.5-2.7-14.2c-1.9-1.9-3.4-1.1-3.4,1.3v8"/>
			</g>
			<g id="_Group_28">
				<path id="_Path_28" class="st0" d="M319.6,154.9v45.3h-15v-41.3c0-5.1-0.8-4.9-3.6-7.1c-0.4-0.3-1.9-1.3-1.9-1.3l11.8-9.7
					c2.5,1.3,4.7,2.9,6.7,4.9c2.5-1.5,3.7-2.1,7.8-4.1c5-2.4,6.4-1.3,8.5,0.3c1.9,1.3,3.6,2.8,5.2,4.5c2.2,2.3,2.3,3.7,2.3,7
					c0,4.4,0,29.5,0,29.5c0,5.9,1,6,6,8.9l-9.9,11.4c-1.8-1.1-3.6-2.4-5.2-3.8c-1.2-0.9-2.3-1.9-3.3-2.9c-2.7-2.6-2.6-5.9-2.6-9.9
					v-31.3c0-2.7-2.7-3-4.3-2.1C321.1,153.9,320.3,154.4,319.6,154.9z"/>
			</g>
			<g id="_Group_29">
				<path id="_Path_29" class="st0" d="M368.3,153.7v27.8c0,5.5,3.1,6.8,9.4,9.7l-8,12l-8-4.2c-5-3-8.8-6.2-8.8-12.6v-32.6h-8.1
					v-11.2h8.1v-7.2l15.4-7.3v14.5h9v11.2H368.3z"/>
			</g>
		</g>
	</g>
</g>
<path class="st1" d="M440.8,67.5c-5.9,0-11.1-4.1-11.1-11s5.2-11,11.1-11s11,4,11,11S446.6,67.5,440.8,67.5z M440.8,48
	c-4.4,0-8,3.4-8,8.5s3.5,8.5,8,8.5l0,0c4.2,0,7.9-3.4,7.9-8.5S445,48,440.8,48z M438.9,62.4h-2.5V50.5h4.4c3.1,0,4.9,0.9,4.9,3.6
	c0.2,1.5-1,2.9-2.5,3.1c-0.1,0-0.2,0-0.4,0l3,5.2h-3l-2.7-5h-1.2L438.9,62.4z M441.2,55.4c1.1,0,1.8-0.2,1.8-1.5s-1.3-1.3-2.3-1.3
	h-1.8v2.9L441.2,55.4z"/>
</svg>
